HIERARCHY
ROOT joint_Root
{
	OFFSET 0.0 0.0 0.0
	CHANNELS 6 Xposition Yposition Zposition Zrotation Xrotation Yrotation 
	JOINT Hips
	{
		OFFSET -17.1583 93.1646 452.98
		CHANNELS 6 Xposition Yposition Zposition Zrotation Xrotation Yrotation 
		JOINT Spine
		{
			OFFSET 15.7357 0.0 0.0
			CHANNELS 6 Xposition Yposition Zposition Zrotation Xrotation Yrotation 
			JOINT Chest
			{
				OFFSET 8.98455 -0.406207 0.0
				CHANNELS 6 Xposition Yposition Zposition Zrotation Xrotation Yrotation 
				JOINT Neck
				{
					OFFSET 16.3773 0.0 0.0
					CHANNELS 6 Xposition Yposition Zposition Zrotation Xrotation Yrotation 
					JOINT Head
					{
						OFFSET 6.45672 0.0 0.0
						CHANNELS 6 Xposition Yposition Zposition Zrotation Xrotation Yrotation 
						End Site
						{
							OFFSET 0.0 0.0 0.0
						}
					}
				}
				JOINT Shoulder_L
				{
					OFFSET 12.9942 -0.242716 4.98039
					CHANNELS 6 Xposition Yposition Zposition Zrotation Xrotation Yrotation 
					JOINT UpperArm_L
					{
						OFFSET 5.34809 0.0 0.0
						CHANNELS 6 Xposition Yposition Zposition Zrotation Xrotation Yrotation 
						JOINT LowerArm_L
						{
							OFFSET 24.3286 1.87007e-05 0.0
							CHANNELS 6 Xposition Yposition Zposition Zrotation Xrotation Yrotation 
							JOINT Hand_L
							{
								OFFSET 22.2916 0.0 0.0
								CHANNELS 6 Xposition Yposition Zposition Zrotation Xrotation Yrotation 
								End Site
								{
									OFFSET 0.0 0.0 0.0
								}
							}
						}
					}
				}
				JOINT Shoulder_R
				{
					OFFSET 12.9945 -0.242716 -4.98039
					CHANNELS 6 Xposition Yposition Zposition Zrotation Xrotation Yrotation 
					JOINT UpperArm_R
					{
						OFFSET -5.34813 0.0 0.0
						CHANNELS 6 Xposition Yposition Zposition Zrotation Xrotation Yrotation 
						JOINT LowerArm_R
						{
							OFFSET -24.3289 0.000322201 0.0
							CHANNELS 6 Xposition Yposition Zposition Zrotation Xrotation Yrotation 
							JOINT Hand_R
							{
								OFFSET -22.2915 -0.000108084 0.0
								CHANNELS 6 Xposition Yposition Zposition Zrotation Xrotation Yrotation 
								End Site
								{
									OFFSET 0.0 0.0 0.0
								}
							}
						}
					}
				}
			}
		}
		JOINT UpperLeg_L
		{
			OFFSET -2.19248 -6.46944 0.0
			CHANNELS 6 Xposition Yposition Zposition Zrotation Xrotation Yrotation 
			JOINT LowerLeg_L
			{
				OFFSET 39.0811 0.0 -1.23785e-05
				CHANNELS 6 Xposition Yposition Zposition Zrotation Xrotation Yrotation 
				JOINT Foot_L
				{
					OFFSET 40.9854 0.0 -1.26872e-05
					CHANNELS 6 Xposition Yposition Zposition Zrotation Xrotation Yrotation 
					JOINT Toes_L
					{
						OFFSET 11.7543 0.0 0.0
						CHANNELS 6 Xposition Yposition Zposition Zrotation Xrotation Yrotation 
						End Site
						{
							OFFSET 0.0 0.0 0.0
						}
					}
				}
			}
		}
		JOINT UpperLeg_R
		{
			OFFSET -2.19251 6.46944 0.0
			CHANNELS 6 Xposition Yposition Zposition Zrotation Xrotation Yrotation 
			JOINT LowerLeg_R
			{
				OFFSET -39.0811 -0.00228153 -0.0401928
				CHANNELS 6 Xposition Yposition Zposition Zrotation Xrotation Yrotation 
				JOINT Foot_R
				{
					OFFSET -40.9854 0.0 0.0
					CHANNELS 6 Xposition Yposition Zposition Zrotation Xrotation Yrotation 
					JOINT Toes_R
					{
						OFFSET -11.7543 0.0 0.0
						CHANNELS 6 Xposition Yposition Zposition Zrotation Xrotation Yrotation 
						End Site
						{
							OFFSET 0.0 0.0 0.0
						}
					}
				}
			}
		}
	}
}
MOTION
Frames:	4
Frame Time:	0.0333333
0.000000 0.000000 0.000000 0.000000 0.000000 -0.000000 -2.221190 93.108700 -0.539382 87.569700 -2.152250 1.132710 15.735700 0.000005 -0.000001 96.154000 86.301700 -94.831400 8.984550 -0.406207 -0.000000 -0.418788 0.698303 2.646300 16.377300 -0.000001 -0.000001 -1.703080 1.774890 -1.215840 6.456720 -0.000001 -0.000000 1.654280 2.073660 0.714194 12.994200 -0.242716 4.980390 -91.918500 5.476850 -70.660400 5.348090 -0.000007 -0.000001 -71.176600 13.409900 -8.374710 24.328600 0.000019 0.000005 4.652120 25.538100 -10.692200 22.291600 -0.000001 0.000005 -17.379000 5.174990 3.395150 12.994500 -0.242716 -4.980390 89.744200 0.852194 -73.289800 -5.348130 -0.000001 -0.000004 -74.151400 11.619300 -6.802620 -24.328900 0.000322 -0.000009 -1.015670 -12.348400 -4.733150 -22.291500 -0.000108 -0.000004 -10.094400 5.185110 3.115190 -2.192480 -6.469440 -0.000000 -171.270000 -7.230470 -0.433005 39.081100 -0.000007 -0.000012 -0.010589 0.040099 14.792100 40.985400 -0.000006 -0.000013 -2.384290 14.056900 -68.312000 11.754300 -0.000000 0.000003 -0.001786 0.193628 -8.721380 -2.192510 6.469440 -0.000001 178.699000 5.668040 -179.402000 -39.081100 -0.002282 -0.040193 0.031515 -0.125499 12.655800 -40.985400 0.000008 0.000006 -4.013390 5.533990 -68.043100 -11.754300 -0.000006 -0.000006 -0.010782 0.277059 -5.315590
0.000000 0.000000 0.000000 0.000000 0.000000 -0.000000 -2.208680 93.156900 -0.190117 87.549400 -1.938860 0.222656 15.735700 0.000005 -0.000001 97.221600 86.823000 -95.974900 8.984550 -0.406207 -0.000000 -1.468920 0.698118 2.501740 16.377300 -0.000001 -0.000001 -2.301100 1.645930 -1.144600 6.456720 -0.000001 -0.000000 1.661070 2.069780 0.982898 12.994200 -0.242716 4.980390 -91.702400 4.705600 -70.084100 5.348090 -0.000007 -0.000001 -67.616300 0.245633 -10.433000 24.328600 0.000019 0.000005 2.456740 29.261300 -5.018350 22.291600 -0.000001 0.000005 -23.183900 5.065340 5.911380 12.994500 -0.242716 -4.980390 90.044300 -0.142337 -72.738200 -5.348130 -0.000001 -0.000004 -71.589300 3.926950 -7.372220 -24.328900 0.000322 -0.000009 -0.002861 -10.193600 -0.000059 -22.291500 -0.000108 -0.000004 -15.887900 5.115500 4.775500 -2.192480 -6.469440 -0.000000 -171.360000 -7.207420 -0.747094 39.081100 -0.000007 -0.000012 -0.012020 0.048223 13.996200 40.985400 -0.000006 -0.000013 -2.430580 14.071600 -68.230500 11.754300 -0.000000 0.000003 -0.001887 0.194920 -8.668830 -2.192510 6.469440 -0.000001 178.701000 5.996130 -179.555000 -39.081100 -0.002282 -0.040193 0.021676 -0.089344 11.600300 -40.985400 0.000008 0.000006 -4.560060 5.687720 -67.495300 -11.754300 -0.000006 -0.000006 -0.010566 0.275485 -5.380000
0.000000 0.000000 0.000000 0.000000 0.000000 -0.000000 -2.201650 93.203200 0.194611 87.594500 -1.783880 -0.793296 15.735700 0.000005 -0.000001 97.778200 87.393700 -96.595900 8.984550 -0.406207 -0.000000 -2.606590 0.598246 2.378310 16.377300 -0.000001 -0.000001 -3.304530 1.687360 -1.202640 6.456720 -0.000001 -0.000000 1.558340 2.245260 1.132160 12.994200 -0.242716 4.980390 -91.459100 3.898280 -69.460400 5.348090 -0.000007 -0.000001 -61.488400 -9.499570 -11.459700 24.328600 0.000019 0.000005 1.602790 30.789900 -3.128750 22.291600 -0.000001 0.000005 -23.832300 4.982780 7.679670 12.994500 -0.242716 -4.980390 90.350300 -1.084500 -72.101100 -5.348130 -0.000001 -0.000004 -67.017400 -6.115670 -7.644490 -24.328900 0.000322 -0.000009 -0.001407 -5.984510 -0.000038 -22.291500 -0.000108 -0.000004 -19.121700 4.996530 7.394210 -2.192480 -6.469440 -0.000000 -171.553000 -6.963600 -1.046010 39.081100 -0.000007 -0.000012 -0.008387 0.036164 13.055500 40.985400 -0.000006 -0.000013 -2.524190 13.795800 -68.258300 11.754300 -0.000000 0.000003 -0.002381 0.201015 -8.420930 -2.192510 6.469440 -0.000001 178.676000 5.874000 -179.830000 -39.081100 -0.002282 -0.040193 0.014604 -0.060240 10.593500 -40.985400 0.000008 0.000006 -5.301830 5.461090 -67.059800 -11.754300 -0.000006 -0.000006 -0.010744 0.276782 -5.326940
0.000000 0.000000 0.000000 0.000000 0.000000 -0.000000 -2.187980 93.235800 0.655333 87.703500 -1.618110 -1.620670 15.735700 0.000005 -0.000001 98.321100 87.885600 -97.223100 8.984550 -0.406207 -0.000000 -3.585610 0.502955 2.212350 16.377300 -0.000001 -0.000001 -4.600390 1.761510 -1.152650 6.456720 -0.000001 -0.000000 1.185460 2.456100 1.067890 12.994200 -0.242716 4.980390 -91.263300 3.237170 -68.667800 5.348090 -0.000007 -0.000001 -53.911000 -18.941700 -12.259400 24.328600 0.000019 0.000005 1.550160 30.184000 -3.080830 22.291600 -0.000001 0.000005 -19.522900 4.946070 8.436660 12.994500 -0.242716 -4.980390 90.513200 -1.532180 -71.478700 -5.348130 -0.000001 -0.000004 -60.104500 -15.279700 -6.718050 -24.328900 0.000322 -0.000009 -0.001055 -3.307020 -0.000025 -22.291500 -0.000108 -0.000004 -18.338000 4.901750 9.342560 -2.192480 -6.469440 -0.000000 -171.742000 -6.890440 -1.066850 39.081100 -0.000007 -0.000012 -0.007564 0.035596 11.995700 40.985400 -0.000006 -0.000013 -2.795190 13.747600 -67.989700 11.754300 -0.000000 0.000003 -0.002210 0.198947 -8.505070 -2.192510 6.469440 -0.000001 178.503000 5.872970 -179.883000 -39.081100 -0.002282 -0.040193 0.009111 -0.034008 9.631850 -40.985400 0.000008 0.000006 -6.326590 5.444720 -66.565900 -11.754300 -0.000006 -0.000006 -0.011097 0.279324 -5.222870
